<svg xmlns="http://www.w3.org/2000/svg" width="15.179" height="13.408" viewBox="0 0 15.179 13.408">
  <g id="check-mark_1_" data-name="check-mark (1)" transform="translate(-0.001 -20.566)">
    <path id="Tracé_64" data-name="Tracé 64" d="M14.517,20.669c-.685-.369-1.449.342-1.9.764-1.027,1-1.9,2.16-2.872,3.214-1.08,1.159-2.081,2.318-3.188,3.451a9.5,9.5,0,0,0-1.739,2.108A34.581,34.581,0,0,0,2,27.466c-.764-.58-2.028-1-2,.4.053,1.818,1.66,3.767,2.845,5.005a3.009,3.009,0,0,0,1.923,1.106c.922.053,1.87-1.054,2.424-1.66.975-1.054,1.765-2.239,2.661-3.319,1.159-1.423,2.345-2.819,3.477-4.268C14.042,23.83,16.282,21.617,14.517,20.669ZM1.16,27.755a.2.2,0,0,0-.105.026,1.282,1.282,0,0,1-.29-.105h0Q.883,27.6,1.16,27.755Z" transform="translate(0 0)" fill="#00cf07"/>
  </g>
</svg>
