<svg xmlns="http://www.w3.org/2000/svg" width="32.011" height="132.313" viewBox="0 0 32.011 132.313">
  <g id="up-arrow" transform="translate(161.843 132.313) rotate(180)">
    <path id="Tracé_70" data-name="Tracé 70" d="M149.779,1.344a2.174,2.174,0,0,0-4.018,0c-6.506,13.892-12.438,28.009-15.883,43.245-.383,2.241,1.722,4.481,3.444,3.137a47.986,47.986,0,0,0,9.95-11.428c-.765,31.37-2.672,63.411,3.643,94.333.383,2.241,1.906,2.241,1.715,0-3.444-32.042-.765-63.86-.383-95.9,3.253,3.361,6.506,6.722,9.568,10.083a2.339,2.339,0,0,0,4.019-2.017A121.438,121.438,0,0,0,149.779,1.344Zm-2.1,26.664c-1.148-2.017-4.4-1.568-4.4,1.568v.448c-2.3,2.689-4.4,5.378-6.889,8.066a224.368,224.368,0,0,1,11.29-29.577A111.019,111.019,0,0,1,155.9,35.851c-2.1-2.241-4.4-4.481-6.506-6.946A1.349,1.349,0,0,0,147.674,28.009Z" transform="translate(0)" fill="#666"/>
  </g>
</svg>
