<svg xmlns="http://www.w3.org/2000/svg" xmlns:xlink="http://www.w3.org/1999/xlink" width="170.885" height="41.632" viewBox="0 0 170.885 41.632">
  <defs>
    <clipPath id="clip-path">
      <rect id="Rectangle_116" data-name="Rectangle 116" width="49.107" height="41.632" fill="none"/>
    </clipPath>
  </defs>
  <g id="Groupe_1451" data-name="Groupe 1451" transform="translate(-50.981 -851.914)">
    <g id="Logo" transform="translate(50.981 851.914)">
      <rect id="Rectangle_111" data-name="Rectangle 111" width="4.68" height="14.787" transform="translate(9.529 20.832)" fill="#b09be8"/>
      <path id="Tracé_63" data-name="Tracé 63" d="M0,0H4.68V14.786H0Z" transform="translate(15.744 26.618)" fill="#8867dc"/>
      <rect id="Rectangle_113" data-name="Rectangle 113" width="4.681" height="14.787" transform="translate(21.96 23.657)" fill="#6c46ce"/>
      <rect id="Rectangle_114" data-name="Rectangle 114" width="4.681" height="14.787" transform="translate(28.128 26.846)" fill="#4f24bc"/>
      <rect id="Rectangle_115" data-name="Rectangle 115" width="4.681" height="14.787" transform="translate(34.297 20.832)" fill="#360f9b"/>
      <g id="Groupe_74" data-name="Groupe 74" transform="translate(0 0)">
        <g id="Groupe_73" data-name="Groupe 73" clip-path="url(#clip-path)">
          <path id="Tracé_24" data-name="Tracé 24" d="M43.8,20.826A19.438,19.438,0,0,0,25.191.013V.006c-.133,0-.267-.006-.4-.006H24.28c-.134,0-.268,0-.4.006V.013A19.448,19.448,0,0,0,5.238,20.5,7.418,7.418,0,0,0,0,27.522a7.5,7.5,0,0,0,7.6,7.393V20.129H7.582c.015-.507.051-1.106.129-1.776A18.589,18.589,0,0,1,9.922,11.12,16.238,16.238,0,0,1,16.97,4.426c.274-.128.556-.241.838-.35a21.318,21.318,0,0,1,2.128-.7,19.338,19.338,0,0,1,2.951-.546c.1-.011,1-.073,1.648-.125.647.052,1.543.114,1.647.125a19.333,19.333,0,0,1,2.951.546,21.365,21.365,0,0,1,2.129.7c.282.109.564.222.838.35a16.238,16.238,0,0,1,7.048,6.694,18.589,18.589,0,0,1,2.211,7.233,20.8,20.8,0,0,1,.138,2.473h.01V35.268a7.5,7.5,0,0,0,7.6-7.393,7.422,7.422,0,0,0-5.3-7.049" transform="translate(0 0)" fill="#fff"/>
        </g>
      </g>
    </g>
    <g id="Nom_logo" data-name="Nom logo" transform="translate(100.186 866.73)">
      <path id="Tracé_6" data-name="Tracé 6" d="M124.029,71.734l-5.706-17.719h3.07l2.669,8.965c.667,2.208,1.267,4.416,1.669,6.125h.066a58.853,58.853,0,0,1,1.835-6.151l3-8.939h3.036l2.736,8.991a56.5,56.5,0,0,1,1.568,6.072h.068c.467-1.945,1.1-3.917,1.8-6.125l2.97-8.939h2.97l-6.374,17.719h-3.036l-2.836-9.227a43.486,43.486,0,0,1-1.468-5.784H132a45.761,45.761,0,0,1-1.735,5.784l-3.2,9.227Z" transform="translate(-118.323 -53.944)" fill="#fff"/>
      <path id="Tracé_7" data-name="Tracé 7" d="M163.776,66.161l-2.336,5.573h-3l7.641-17.719h3.5l7.674,17.719h-3.1l-2.4-5.573Zm7.374-1.788-2.2-5.1c-.5-1.157-.835-2.208-1.167-3.233h-.067c-.334,1.051-.7,2.129-1.135,3.207l-2.2,5.126Z" transform="translate(-132.431 -54.015)" fill="#fff"/>
      <path id="Tracé_8" data-name="Tracé 8" d="M193.444,71.734,186.1,54.015h3.136l3.5,8.728a69.919,69.919,0,0,1,2.4,6.625h.066a68.219,68.219,0,0,1,2.569-6.6l3.8-8.754h3.1l-8.041,17.719Z" transform="translate(-143.038 -54.015)" fill="#fff"/>
      <path id="Tracé_9" data-name="Tracé 9" d="M229.8,63.427H221.06v6.389H230.8v1.919H218.158V54.015H230.3v1.919H221.06v5.6H229.8Z" transform="translate(-153.382 -53.944)" fill="#fff"/>
      <path id="Tracé_10" data-name="Tracé 10" d="M262.273,62.5c0,6.1-4.7,9.333-10.443,9.333-5.94,0-10.111-3.628-10.111-8.991,0-5.625,4.438-9.306,10.445-9.306,6.139,0,10.11,3.707,10.11,8.964m-17.451.289A6.91,6.91,0,0,0,252,69.965c4.6,0,7.207-3.338,7.207-7.361a6.916,6.916,0,0,0-7.174-7.2c-4.8,0-7.207,3.5-7.207,7.388" transform="translate(-160.874 -53.305)" fill="#fff"/>
      <path id="Tracé_11" data-name="Tracé 11" d="M278.494,71.734V54.015h3.17l7.207,8.965a48.062,48.062,0,0,1,4.037,5.758l.067-.026a62.118,62.118,0,0,1-.333-7.282V54.015h2.736V71.734h-2.937l-7.14-8.991a54.377,54.377,0,0,1-4.2-5.915l-.1.027c.167,2.234.234,4.363.234,7.308v7.571Z" transform="translate(-173.697 -53.944)" fill="#fff"/>
    </g>
  </g>
</svg>
