<svg xmlns="http://www.w3.org/2000/svg" xmlns:xlink="http://www.w3.org/1999/xlink" width="249.814" height="147.427" viewBox="0 0 249.814 147.427">
  <defs>
    <clipPath id="clip-path">
      <rect id="Rectangle_116" data-name="Rectangle 116" width="114.456" height="97.034" fill="none"/>
    </clipPath>
  </defs>
  <g id="Groupe_1295" data-name="Groupe 1295" transform="translate(-86.432 -59.914)">
    <g id="Nom_logo" data-name="Nom logo" transform="translate(86.432 169.307)">
      <path id="Tracé_6" data-name="Tracé 6" d="M130.037,90.393,118.323,54.015h6.3l5.48,18.405c1.37,4.534,2.6,9.067,3.426,12.575h.135a120.827,120.827,0,0,1,3.768-12.629L143.6,54.015h6.234l5.618,18.46a115.986,115.986,0,0,1,3.218,12.466h.139c.958-3.993,2.259-8.041,3.7-12.575l6.1-18.351h6.1L161.617,90.393h-6.234l-5.822-18.944a89.277,89.277,0,0,1-3.014-11.875h-.138a93.952,93.952,0,0,1-3.561,11.875l-6.577,18.944Z" transform="translate(-118.323 -53.869)" fill="#fff"/>
      <path id="Tracé_7" data-name="Tracé 7" d="M169.4,78.951,164.6,90.393h-6.165l15.687-36.378h7.192l15.755,36.378H190.7l-4.934-11.442Zm15.139-3.671L180.016,64.81c-1.027-2.375-1.713-4.534-2.4-6.638h-.138c-.685,2.158-1.439,4.371-2.329,6.584L170.631,75.28Z" transform="translate(-105.046 -54.015)" fill="#fff"/>
      <path id="Tracé_8" data-name="Tracé 8" d="M201.174,90.393,186.1,54.015h6.438l7.195,17.92a143.541,143.541,0,0,1,4.933,13.6h.135a140.069,140.069,0,0,1,5.275-13.549l7.811-17.973h6.37L207.75,90.393Z" transform="translate(-97.689 -54.015)" fill="#fff"/>
      <path id="Tracé_9" data-name="Tracé 9" d="M242.063,73.338H224.116V86.454h20v3.94H218.158V54.015h24.935v3.94H224.116v11.5h17.948Z" transform="translate(-85.171 -53.869)" fill="#fff"/>
      <path id="Tracé_10" data-name="Tracé 10" d="M283.917,71.938c0,12.522-9.657,19.161-21.44,19.161-12.195,0-20.758-7.448-20.758-18.46,0-11.549,9.11-19.106,21.443-19.106,12.6,0,20.755,7.611,20.755,18.4m-35.826.594c0,7.772,5.344,14.734,14.728,14.734,9.453,0,14.8-6.854,14.8-15.113,0-7.232-4.8-14.789-14.728-14.789-9.864,0-14.8,7.179-14.8,15.167" transform="translate(-75.741 -53.065)" fill="#fff"/>
      <path id="Tracé_11" data-name="Tracé 11" d="M278.494,90.393V54.015H285L299.8,72.42a98.676,98.676,0,0,1,8.289,11.82l.138-.054a127.539,127.539,0,0,1-.684-14.95V54.015h5.616V90.393h-6.03L292.468,71.935a111.636,111.636,0,0,1-8.631-12.145l-.205.055c.342,4.586.48,8.958.48,15V90.393Z" transform="translate(-63.343 -53.869)" fill="#fff"/>
    </g>
    <g id="Logo" transform="translate(154.123 59.914)">
      <g id="Groupe_1292" data-name="Groupe 1292" transform="translate(22.209 48.555)">
        <rect id="Rectangle_111" data-name="Rectangle 111" width="10.908" height="34.464" fill="#b09be8"/>
        <path id="Tracé_63" data-name="Tracé 63" d="M0,0H10.908V34.463H0Z" transform="translate(14.487 13.485)" fill="#8867dc"/>
        <rect id="Rectangle_113" data-name="Rectangle 113" width="10.909" height="34.464" transform="translate(28.974 6.583)" fill="#6c46ce"/>
        <rect id="Rectangle_114" data-name="Rectangle 114" width="10.909" height="34.464" transform="translate(43.35 14.015)" fill="#4f24bc"/>
        <rect id="Rectangle_115" data-name="Rectangle 115" width="10.909" height="34.464" transform="translate(57.728)" fill="#360f9b"/>
      </g>
      <g id="Groupe_74" data-name="Groupe 74" transform="translate(0 0)">
        <g id="Groupe_73" data-name="Groupe 73" clip-path="url(#clip-path)">
          <path id="Tracé_24" data-name="Tracé 24" d="M102.1,48.539C104.3,22.934,83.719.924,58.713.031V.014C58.4.006,58.09,0,57.777,0c-.1,0-.2,0-.3,0s-.182,0-.274,0h-.044c-.091,0-.182,0-.274,0s-.2,0-.3,0c-.313,0-.624.006-.936.014V.031C30.9.915,10.48,22.494,12.208,47.769A17.289,17.289,0,0,0,0,64.147,17.478,17.478,0,0,0,17.715,81.379V46.915h-.043c.035-1.182.118-2.578.3-4.141a43.326,43.326,0,0,1,5.153-16.857,37.846,37.846,0,0,1,16.427-15.6c.638-.3,1.3-.561,1.953-.816a49.686,49.686,0,0,1,4.96-1.634,45.071,45.071,0,0,1,6.877-1.273c.243-.027,2.332-.17,3.841-.292,1.509.122,3.6.265,3.839.292A45.06,45.06,0,0,1,67.9,7.866,49.8,49.8,0,0,1,72.863,9.5c.657.255,1.315.518,1.952.816a37.846,37.846,0,0,1,16.427,15.6A43.326,43.326,0,0,1,96.4,42.776a48.476,48.476,0,0,1,.322,5.765l.024,0V82.2a17.478,17.478,0,0,0,17.715-17.232A17.3,17.3,0,0,0,102.1,48.539" transform="translate(0 0)" fill="#fff"/>
        </g>
      </g>
    </g>
  </g>
</svg>
