<svg xmlns="http://www.w3.org/2000/svg" width="20.36" height="20.36" viewBox="0 0 20.36 20.36">
  <g id="magnifier" transform="translate(-0.001 0)">
    <g id="Groupe_1401" data-name="Groupe 1401" transform="translate(0.001 0)">
      <path id="Tracé_828" data-name="Tracé 828" d="M17.945,14.1A8.261,8.261,0,0,0,6.262,2.416a8.1,8.1,0,0,0-1.243,9.971.347.347,0,0,1-.048.414L.756,17.015a1.925,1.925,0,0,0-.295,2.756l.128.128A1.925,1.925,0,0,0,3.345,19.6L7.551,15.4a.353.353,0,0,1,.423-.057A8.1,8.1,0,0,0,17.945,14.1ZM7.787,12.574a6.1,6.1,0,1,1,8.633,0A6.111,6.111,0,0,1,7.787,12.574Z" transform="translate(-0.001 0)" fill="#fff"/>
      <g id="Groupe_1400" data-name="Groupe 1400" transform="translate(7.461 3.306)">
        <path id="Tracé_829" data-name="Tracé 829" d="M114.6,54.87a.853.853,0,0,1-.785-1.185,5.374,5.374,0,0,1,7.035-2.852.853.853,0,1,1-.665,1.57,3.667,3.667,0,0,0-4.8,1.946A.853.853,0,0,1,114.6,54.87Z" transform="translate(-113.752 -50.409)" fill="#fff"/>
      </g>
    </g>
  </g>
</svg>
