<svg id="button" xmlns="http://www.w3.org/2000/svg" width="13.863" height="13.863" viewBox="0 0 13.863 13.863">
  <g id="Groupe_1291" data-name="Groupe 1291">
    <g id="Groupe_1290" data-name="Groupe 1290">
      <path id="Tracé_67" data-name="Tracé 67" d="M156,158.708a.541.541,0,0,0,.542.542h1.625v1.625a.542.542,0,0,0,1.083,0v-1.625h1.625a.542.542,0,0,0,0-1.083h-1.625v-1.625a.542.542,0,1,0-1.083,0v1.625h-1.625A.542.542,0,0,0,156,158.708Z" transform="translate(-151.776 -151.776)" fill="#6c46ce"/>
      <path id="Tracé_68" data-name="Tracé 68" d="M133.495,13.932l.7-.29a.542.542,0,1,0-.414-1l-.7.29a.542.542,0,1,0,.415,1Z" transform="translate(-129.152 -12.258)" fill="#6c46ce"/>
      <path id="Tracé_69" data-name="Tracé 69" d="M6.931,0a.542.542,0,0,0,0,1.083A5.848,5.848,0,1,1,1.083,6.931.542.542,0,0,0,0,6.931,6.931,6.931,0,1,0,6.931,0Z" fill="#6c46ce"/>
      <path id="Tracé_70" data-name="Tracé 70" d="M60.147,60.684l.536-.536a.542.542,0,1,0-.766-.766l-.536.536a.542.542,0,0,0,.766.766Z" transform="translate(-57.619 -57.62)" fill="#6c46ce"/>
      <path id="Tracé_71" data-name="Tracé 71" d="M12.935,134.489a.542.542,0,0,0,.708-.293l.29-.7a.542.542,0,1,0-1-.414l-.29.7A.542.542,0,0,0,12.935,134.489Z" transform="translate(-12.26 -129.152)" fill="#6c46ce"/>
    </g>
  </g>
</svg>
