<svg xmlns="http://www.w3.org/2000/svg" width="17.507" height="20.378" viewBox="0 0 17.507 20.378">
  <g id="Icone_cloche_-_notifications" data-name="Icone cloche - notifications" transform="translate(0 0)">
    <path id="bell" d="M70.58,17.791a3.437,3.437,0,0,1-1.045-1.422,16.46,16.46,0,0,1-1.089-6.5c0-.008,0-.017,0-.025a6.278,6.278,0,0,0-3.7-5.694c0-.612-1.08-1.636-2.563-1.718-1.069-.069-2.562.894-2.562,1.717a6.278,6.278,0,0,0-3.7,5.719,16.46,16.46,0,0,1-1.089,6.5A3.437,3.437,0,0,1,53.8,17.791a.63.63,0,0,0-.346.717.659.659,0,0,0,.65.507h4.751a3.337,3.337,0,0,0,6.674,0h4.751a.659.659,0,0,0,.65-.507A.63.63,0,0,0,70.58,17.791ZM62.188,21.01a2.045,2.045,0,0,1-2.041-2h4.081A2.045,2.045,0,0,1,62.188,21.01Zm2.61-3.294H55.577a6.792,6.792,0,0,0,.34-.6,16.411,16.411,0,0,0,1.309-7.255,4.962,4.962,0,1,1,9.923,0q0,.012,0,.024a16.378,16.378,0,0,0,1.309,7.229,6.8,6.8,0,0,0,.34.6Z" transform="translate(-53.434 -1.931)" fill="#fff"/>
    <circle id="Ellipse_45" data-name="Ellipse 45" cx="4" cy="4" r="4" transform="translate(9.352 0)" fill="#ef619c"/>
  </g>
</svg>
