<svg xmlns="http://www.w3.org/2000/svg" xmlns:xlink="http://www.w3.org/1999/xlink" width="75" height="75" viewBox="0 0 75 75">
  <defs>
    <clipPath id="clip-path">
      <rect id="Rectangle_116" data-name="Rectangle 116" width="45.305" height="38.408" fill="#949494"/>
    </clipPath>
  </defs>
  <g id="Photo_de_profil" data-name="Photo de profil" transform="translate(-39 -105)">
    <g id="_01f0363f747cbebd852ce56a1f682af3" data-name="01f0363f747cbebd852ce56a1f682af3" transform="translate(39 105)" fill="silver" stroke="#fff" stroke-width="1">
      <circle cx="37.5" cy="37.5" r="37.5" stroke="none"/>
      <circle cx="37.5" cy="37.5" r="37" fill="none"/>
    </g>
    <g id="Logo_-_header" data-name="Logo - header" transform="translate(53.804 123.06)">
      <rect id="Rectangle_111" data-name="Rectangle 111" width="4.318" height="13.642" transform="translate(8.791 19.219)" fill="#949494"/>
      <path id="Tracé_63" data-name="Tracé 63" d="M0,0H4.318V13.641H0Z" transform="translate(14.525 24.557)" fill="#949494"/>
      <rect id="Rectangle_113" data-name="Rectangle 113" width="4.318" height="13.642" transform="translate(20.26 21.825)" fill="#949494"/>
      <rect id="Rectangle_114" data-name="Rectangle 114" width="4.318" height="13.642" transform="translate(25.95 24.767)" fill="#949494"/>
      <rect id="Rectangle_115" data-name="Rectangle 115" width="4.318" height="13.642" transform="translate(31.641 19.219)" fill="#949494"/>
      <g id="Groupe_74" data-name="Groupe 74" transform="translate(0 0)">
        <g id="Groupe_73" data-name="Groupe 73" clip-path="url(#clip-path)">
          <path id="Tracé_24" data-name="Tracé 24" d="M40.413,19.213A17.932,17.932,0,0,0,23.24.012V.005C23.117,0,22.994,0,22.87,0H22.4c-.124,0-.247,0-.371.005V.012a17.942,17.942,0,0,0-17.2,18.9A6.843,6.843,0,0,0,0,25.391a6.918,6.918,0,0,0,7.012,6.821V18.57H7c.014-.468.047-1.021.119-1.639a17.149,17.149,0,0,1,2.04-6.673,14.981,14.981,0,0,1,6.5-6.176c.253-.118.513-.222.773-.323a19.667,19.667,0,0,1,1.963-.647,17.84,17.84,0,0,1,2.722-.5c.1-.011.923-.067,1.52-.116.6.048,1.424.105,1.519.116a17.836,17.836,0,0,1,2.723.5,19.711,19.711,0,0,1,1.964.647c.26.1.52.205.773.323a14.981,14.981,0,0,1,6.5,6.176,17.15,17.15,0,0,1,2.04,6.673,19.188,19.188,0,0,1,.127,2.282h.01V32.537A6.918,6.918,0,0,0,45.3,25.716a6.847,6.847,0,0,0-4.892-6.5" transform="translate(0 0)" fill="#949494"/>
        </g>
      </g>
    </g>
  </g>
</svg>
