<?xml version="1.0" encoding="utf-8"?>
<!-- Generator: Adobe Illustrator 25.2.3, SVG Export Plug-In . SVG Version: 6.00 Build 0)  -->
<svg version="1.1" id="Calque_1" xmlns="http://www.w3.org/2000/svg" xmlns:xlink="http://www.w3.org/1999/xlink" x="0px" y="0px"
	 viewBox="0 0 249.8 147.4" style="enable-background:new 0 0 249.8 147.4;" xml:space="preserve">
<style type="text/css">
	.st0{fill:#FFFFFF;}
	.st1{fill:#B09BE8;}
	.st2{fill:#8867DC;}
	.st3{fill:#6C46CE;}
	.st4{fill:#4F24BC;}
	.st5{fill:#360F9B;}
	.st6{clip-path:url(#SVGID_2_);}
</style>
<g id="Nom_logo" transform="translate(86.432 169.307)">
	<path id="Tracé_6" class="st0" d="M-74.7-127.1l-11.7-36.4h6.3l5.5,18.4c1.4,4.5,2.6,9.1,3.4,12.6h0.1c1-4.3,2.3-8.5,3.8-12.6
		l6.2-18.4h6.2l5.6,18.5c1.3,4.1,2.4,8.3,3.2,12.5h0.1c1-4,2.3-8,3.7-12.6l6.1-18.4h6.1l-13.1,36.4h-6.2l-5.8-18.9
		c-1.3-3.9-2.3-7.9-3-11.9h-0.1c-0.9,4-2.1,8-3.6,11.9l-6.6,18.9H-74.7z"/>
	<path id="Tracé_7" class="st0" d="M-22.1-138.7l-4.8,11.4H-33l15.7-36.4h7.2l15.8,36.4h-6.4l-4.9-11.4H-22.1z M-6.9-142.4
		l-4.5-10.5c-1-2.4-1.7-4.5-2.4-6.6H-14c-0.7,2.2-1.4,4.4-2.3,6.6l-4.5,10.5H-6.9z"/>
	<path id="Tracé_8" class="st0" d="M17.1-127.3L2-163.7h6.4l7.2,17.9c1.9,4.4,3.5,9,4.9,13.6h0.1c1.5-4.6,3.3-9.1,5.3-13.5l7.8-18
		h6.4l-16.5,36.4H17.1z"/>
	<path id="Tracé_9" class="st0" d="M70.5-144.2H52.5v13.1h20v3.9h-26v-36.4h24.9v3.9h-19v11.5h17.9L70.5-144.2z"/>
	<path id="Tracé_10" class="st0" d="M121.7-144.8c0,12.5-9.7,19.2-21.4,19.2c-12.2,0-20.8-7.4-20.8-18.5c0-11.5,9.1-19.1,21.4-19.1
		C113.6-163.2,121.7-155.6,121.7-144.8 M85.9-144.2c0,7.8,5.3,14.7,14.7,14.7c9.5,0,14.8-6.9,14.8-15.1c0-7.2-4.8-14.8-14.7-14.8
		C90.9-159.4,85.9-152.2,85.9-144.2"/>
	<path id="Tracé_11" class="st0" d="M128.7-127.1v-36.4h6.5l14.8,18.4c3,3.7,5.8,7.7,8.3,11.8l0.1-0.1c-0.5-5-0.7-10-0.7-14.9
		v-15.2h5.6v36.4h-6l-14.7-18.5c-3.1-3.9-6-7.9-8.6-12.1l-0.2,0.1c0.3,4.6,0.5,9,0.5,15v15.5H128.7z"/>
</g>
<g id="Logo" transform="translate(154.123 59.914)">
	<g id="Groupe_1292" transform="translate(22.209 48.555)">
		<rect id="Rectangle_111" x="-84.8" y="-14.2" class="st1" width="10.9" height="34.5"/>
		<path id="Tracé_63" class="st2" d="M-70.3-0.8h10.9v34.5h-10.9V-0.8z"/>
		<rect id="Rectangle_113" x="-55.8" y="-7.7" class="st3" width="10.9" height="34.5"/>
		<rect id="Rectangle_114" x="-41.4" y="-0.2" class="st4" width="10.9" height="34.5"/>
		<rect id="Rectangle_115" x="-27.1" y="-14.2" class="st5" width="10.9" height="34.5"/>
	</g>
	<g id="Groupe_74" transform="translate(0 0)">
		<g>
			<defs>
				<rect id="SVGID_1_" x="-84.8" y="-14.2" width="114.5" height="97"/>
			</defs>
			<clipPath id="SVGID_2_">
				<use xlink:href="#SVGID_1_"  style="overflow:visible;"/>
			</clipPath>
			<g id="Groupe_73" class="st6">
				<path id="Tracé_24" class="st0" d="M17.3,34.3C19.5,8.7-1.1-13.3-26.1-14.2v0c-0.3,0-0.6,0-0.9,0c-0.1,0-0.2,0-0.3,0
					s-0.2,0-0.3,0h0c-0.1,0-0.2,0-0.3,0s-0.2,0-0.3,0c-0.3,0-0.6,0-0.9,0v0c-24.7,0.9-45.2,22.5-43.4,47.7
					c-7.2,2.2-12.1,8.8-12.2,16.4c0.1,9.6,8.1,17.4,17.7,17.2V32.7h0c0-1.2,0.1-2.6,0.3-4.1c0.5-5.9,2.3-11.7,5.2-16.9
					c3.8-6.8,9.5-12.2,16.4-15.6c0.6-0.3,1.3-0.6,2-0.8c1.6-0.6,3.3-1.2,5-1.6c2.3-0.6,4.6-1,6.9-1.3c0.2,0,2.3-0.2,3.8-0.3
					c1.5,0.1,3.6,0.3,3.8,0.3c2.3,0.2,4.6,0.7,6.9,1.3c1.7,0.5,3.3,1,5,1.6c0.7,0.3,1.3,0.5,2,0.8C-3-0.5,2.7,4.9,6.5,11.7
					c2.9,5.2,4.6,10.9,5.2,16.9c0.2,1.9,0.3,3.8,0.3,5.8h0V68c9.6,0.1,17.6-7.6,17.7-17.2C29.6,43.1,24.6,36.5,17.3,34.3"/>
			</g>
		</g>
	</g>
</g>
</svg>
