<svg id="instagram_1_" data-name="instagram (1)" xmlns="http://www.w3.org/2000/svg" width="34.546" height="34.546" viewBox="0 0 34.546 34.546">
  <path id="Tracé_79" data-name="Tracé 79" d="M213.612,210.306A3.306,3.306,0,1,1,210.306,207,3.306,3.306,0,0,1,213.612,210.306Zm0,0" transform="translate(-193.033 -193.033)" fill="#fff"/>
  <path id="Tracé_80" data-name="Tracé 80" d="M151.348,137.77a3.285,3.285,0,0,0-1.882-1.882,5.488,5.488,0,0,0-1.842-.341c-1.046-.048-1.36-.058-4.008-.058s-2.962.01-4.008.058a5.491,5.491,0,0,0-1.842.342,3.286,3.286,0,0,0-1.883,1.882,5.489,5.489,0,0,0-.341,1.842c-.048,1.046-.058,1.359-.058,4.008s.01,2.962.058,4.008a5.487,5.487,0,0,0,.341,1.842,3.285,3.285,0,0,0,1.882,1.882,5.481,5.481,0,0,0,1.842.342c1.046.048,1.359.058,4.008.058s2.962-.01,4.008-.058a5.481,5.481,0,0,0,1.842-.342,3.284,3.284,0,0,0,1.882-1.882,5.493,5.493,0,0,0,.342-1.842c.048-1.046.058-1.36.058-4.008s-.01-2.962-.058-4.008A5.48,5.48,0,0,0,151.348,137.77Zm-7.732,10.943a5.093,5.093,0,1,1,5.093-5.093A5.093,5.093,0,0,1,143.616,148.713Zm5.295-9.2a1.19,1.19,0,1,1,1.19-1.19A1.19,1.19,0,0,1,148.911,139.516Zm0,0" transform="translate(-126.343 -126.347)" fill="#fff"/>
  <path id="Tracé_81" data-name="Tracé 81" d="M17.273,0A17.273,17.273,0,1,0,34.546,17.273,17.275,17.275,0,0,0,17.273,0Zm9.859,21.362a7.277,7.277,0,0,1-.461,2.408,5.072,5.072,0,0,1-2.9,2.9,7.282,7.282,0,0,1-2.407.461c-1.058.048-1.4.06-4.089.06s-3.032-.012-4.09-.06a7.282,7.282,0,0,1-2.407-.461,5.072,5.072,0,0,1-2.9-2.9,7.275,7.275,0,0,1-.461-2.407c-.049-1.058-.06-1.4-.06-4.09s.011-3.032.06-4.089a7.278,7.278,0,0,1,.461-2.408,5.075,5.075,0,0,1,2.9-2.9,7.284,7.284,0,0,1,2.408-.461c1.058-.048,1.4-.06,4.089-.06s3.032.012,4.089.06a7.285,7.285,0,0,1,2.408.46,5.073,5.073,0,0,1,2.9,2.9,7.276,7.276,0,0,1,.461,2.408c.048,1.058.06,1.4.06,4.089S27.18,20.3,27.132,21.362Zm0,0" fill="#fff"/>
</svg>
