<svg id="youtube" xmlns="http://www.w3.org/2000/svg" width="34.546" height="34.546" viewBox="0 0 34.546 34.546">
  <path id="Tracé_82" data-name="Tracé 82" d="M224.113,214.511l5.619-3.236-5.619-3.236Zm0,0" transform="translate(-208.991 -194.002)" fill="#fff"/>
  <path id="Tracé_83" data-name="Tracé 83" d="M17.273,0A17.273,17.273,0,1,0,34.546,17.273,17.275,17.275,0,0,0,17.273,0ZM28.066,17.291a28.509,28.509,0,0,1-.444,5.192,2.7,2.7,0,0,1-1.9,1.9c-1.689.445-8.446.445-8.446.445s-6.739,0-8.446-.462a2.705,2.705,0,0,1-1.9-1.9,28.384,28.384,0,0,1-.445-5.192,28.49,28.49,0,0,1,.445-5.192,2.76,2.76,0,0,1,1.9-1.92c1.689-.445,8.446-.445,8.446-.445s6.757,0,8.446.462a2.705,2.705,0,0,1,1.9,1.9,27.054,27.054,0,0,1,.444,5.21Zm0,0" fill="#fff"/>
</svg>
